# xmcd
#
# Track frame offsets:
#	150
#	16440
#	30680
#	47417
#	61535
#	80672
#	93842
#	112020
#	132820
#	148630
#
# Disc length: 2173 seconds
#
# Revision: 0
# Processed by: cddbd v1.5.2PL0 Copyright (c) Steve Scherf et al.
# Submitted via: audiograbber 1.81.02
#
DISCID=79087b0a
DTITLE=Vince Gill - When I Call Your Name
DYEAR=1989
DGENRE=Country
TTITLE0=Never Alone
TTITLE1=Sight For Sore Eyes
TTITLE2=Oh Girl (You Know Where To Find Me)
TTITLE3=Oklahoma Swing
TTITLE4=When I Call Your Name
TTITLE5=Ridin' The Rodeo
TTITLE6=Never Knew Lonely
TTITLE7=We Won't Dance
TTITLE8=We Could Have Been
TTITLE9=Rita Ballou
EXTD=
EXTT0=
EXTT1=
EXTT2=
EXTT3=
EXTT4=
EXTT5=
EXTT6=
EXTT7=
EXTT8=
EXTT9=
PLAYORDER=
